<?xml version="1.0" encoding="utf-8"?>
<!-- Generator: Adobe Illustrator 16.0.3, SVG Export Plug-In . SVG Version: 6.00 Build 0)  -->
<!DOCTYPE svg PUBLIC "-//W3C//DTD SVG 1.1//EN" "http://www.w3.org/Graphics/SVG/1.1/DTD/svg11.dtd" [
	<!ENTITY st0 "fill-rule:evenodd;clip-rule:evenodd;fill:#ED1C24;">
]>
<svg version="1.1" id="Layer_1" xmlns="http://www.w3.org/2000/svg" xmlns:xlink="http://www.w3.org/1999/xlink" x="0px" y="0px"
	 width="671.119px" height="2177.519px" viewBox="0 0 671.119 2177.519" style="enable-background:new 0 0 671.119 2177.519;"
	 xml:space="preserve">
<path style="&st0;" d="M666.948,234.074c-21.064-108.617-81.328-180.417-174-217c-103.867-41.002-205.663-2.012-264,52
	c-38.503,35.649-92.895,122.346-90,197c0,47.02,0,94.049,0,141.073h69.01c-1.682-88.558-2.15-179.907,30.99-236.073
	c47.206-80.006,147.658-133.286,257-74c113.814,61.711,101.01,164.722,101,324c0,61.327,0,122.673,0,184
	c-1.667,334.3-3.333,668.7-5,1003c0,67.993,0,136.007,0,204c0.001,26.928,1.708,54.6-3,78c-24.088,119.745-102.144,190.346-224,213
	c-60.447,11.238-117.745-10.492-154-29c-72.486-37.005-120.127-100.384-137-193c-5.339-29.307-1.109-58.981-1-81
	c0.333-64.66,0.667-129.34,1-194c0.667-113.989,1.333-228.011,2-342c0.333-72.659,0.667-145.341,1-218
	c0.333-110.322,0.667-220.678,1-331c-18.446-0.311-53.791-7.041-70,0c-5.02,4.84-2.002,119.382-2,147
	c-0.667,122.988-1.333,246.012-2,369c-0.667,145.319-1.333,290.681-2,436c-0.333,32.997-0.667,66.003-1,99
	c-0.001,61.727-5.5,114.292,10,166c27.202,90.747,78.462,156.62,154,199c56.187,31.523,145.3,60.56,234,39
	c135.843-33.018,221.413-117.707,257-251c9.022-33.792,2.986-72.964,7-114c0.333-93.657,0.667-187.343,1-281
	c1.333-277.306,2.667-554.694,4-832c0-90.991,0-182.009,0-273C664.786,360.792,677.271,287.301,666.948,234.074z"/>
</svg>
